<?xml version="1.0" encoding="utf-8" standalone="no"?>
<!DOCTYPE svg PUBLIC "-//W3C//DTD SVG 1.1//EN"
  "http://www.w3.org/Graphics/SVG/1.1/DTD/svg11.dtd">
<svg xmlns:xlink="http://www.w3.org/1999/xlink" width="280.512pt" height="280.512pt" viewBox="0 0 280.512 280.512" xmlns="http://www.w3.org/2000/svg" version="1.1">
 <metadata>
  <rdf:RDF xmlns:dc="http://purl.org/dc/elements/1.1/" xmlns:cc="http://creativecommons.org/ns#" xmlns:rdf="http://www.w3.org/1999/02/22-rdf-syntax-ns#">
   <cc:Work>
    <dc:type rdf:resource="http://purl.org/dc/dcmitype/StillImage"/>
    <dc:date>2023-01-03T18:22:19.664862</dc:date>
    <dc:format>image/svg+xml</dc:format>
    <dc:creator>
     <cc:Agent>
      <dc:title>Matplotlib v3.6.2, https://matplotlib.org/</dc:title>
     </cc:Agent>
    </dc:creator>
   </cc:Work>
  </rdf:RDF>
 </metadata>
 <defs>
  <style type="text/css">*{stroke-linejoin: round; stroke-linecap: butt}</style>
 </defs>
 <g id="figure_1">
  <g id="patch_1">
   <path d="M 0 280.512 
L 280.512 280.512 
L 280.512 0 
L 0 0 
z
" style="fill: #ffffff"/>
  </g>
  <g id="axes_1">
   <g id="patch_2">
    <path d="M 140.256 260.0064 
C 172.014177 260.0064 202.475897 247.388742 224.93232 224.93232 
C 247.388742 202.475897 260.0064 172.014177 260.0064 140.256 
C 260.0064 108.497823 247.388742 78.036103 224.93232 55.57968 
C 202.475897 33.123258 172.014177 20.5056 140.256 20.5056 
C 108.497823 20.5056 78.036103 33.123258 55.57968 55.57968 
C 33.123258 78.036103 20.5056 108.497823 20.5056 140.256 
C 20.5056 172.014177 33.123258 202.475897 55.57968 224.93232 
C 78.036103 247.388742 108.497823 260.0064 140.256 260.0064 
z
" clip-path="url(#p1fa3e670c7)" style="fill: #080c80; stroke: #080c80; stroke-linejoin: miter"/>
   </g>
   <g id="LineCollection_1">
    <path clip-path="url(#p1fa3e670c7)" style="fill: none; stroke: #ffffff; stroke-width: 8"/>
    <path d="M 179.360177 273.312 
L 179.360177 7.2 
" clip-path="url(#p1fa3e670c7)" style="fill: none; stroke: #ffffff; stroke-width: 8"/>
    <path d="M 140.256 273.312 
L 140.256 7.2 
" clip-path="url(#p1fa3e670c7)" style="fill: none; stroke: #ffffff; stroke-width: 8"/>
    <path d="M 13.712224 119.697717 
L 179.360177 119.697717 
" clip-path="url(#p1fa3e670c7)" style="fill: none; stroke: #ffffff; stroke-width: 8"/>
    <path d="M 13.712224 181.372565 
L 179.360177 181.372565 
" clip-path="url(#p1fa3e670c7)" style="fill: none; stroke: #ffffff; stroke-width: 8"/>
    <path d="M 140.256 99.139435 
L 266.799776 99.139435 
" clip-path="url(#p1fa3e670c7)" style="fill: none; stroke: #ffffff; stroke-width: 8"/>
    <path d="M 140.256 140.256 
L 266.799776 140.256 
" clip-path="url(#p1fa3e670c7)" style="fill: none; stroke: #ffffff; stroke-width: 8"/>
   </g>
  </g>
 </g>
 <defs>
  <clipPath id="p1fa3e670c7">
   <rect x="7.2" y="7.2" width="266.112" height="266.112"/>
  </clipPath>
 </defs>
</svg>
